
Coopers' Christmas is a hilarious comedy set in 1985 suburbia where a dysfunctional family's Christmas disintegrates into madness once an estranged uncle shows up for the holiday. Told primarily through the eyes of Teddy, the youngest Cooper son, through the family's Christmas present: a second hand VHS camcorder.

Format : AVI
Format/Info : Audio Video Interleave
Format profile : OpenDML
File size : 1.40 GiB
Duration : 1h 31mn
Overall bit rate : 2 178 Kbps
Writing application : AVI-Mux GUI 1.17.8.3, Feb 16 201019:42:50

Video
ID : 0
Format : MPEG-4 Visual
Format profile : Advanced Simple@L5
Format settings, BVOP : Yes
Format settings, QPel : No
Format settings, GMC : No warppoints
Format settings, Matrix : Default (MPEG)
Codec ID : XVID
Codec ID/Hint : XviD
Duration : 1h 31mn
Bit rate : 1 724 Kbps
Width : 720 pixels
Height : 400 pixels
Display aspect ratio : 16:9
Frame rate : 23.976 fps
Color space : YUV
Chroma subsampling : 4:2:0
Bit depth : 8 bits
Scan type : Progressive
Bits/(Pixel*Frame) : 0.250
Stream size : 1.11 GiB (79%)
Writing library : XviD 1.2.1 (UTC 2008-12-04)

Audio
ID : 1
Format : AC-3
Format/Info : Audio Coding 3
Mode extension : CM (complete main)
Codec ID : 2000
Duration : 1h 31mn
Bit rate mode : Constant
Bit rate : 448 Kbps
Channel(s) : 6 channels
Channel positions : Front: L C R, Side: L R, LFE
Sampling rate : 48.0 KHz
Bit depth : 16 bits
Stream size : 295 MiB (21%)
Alignment : Aligned on interleaves
Interleave, duration : 64 ms (1.53 video frames)
Interleave, preload duration : 192 ms
Title : 3_2ch 448Kbps DELAY 0ms english

Actors: Jason Jones, Mike Beaver, Samantha Bee, Dave Foley
Language: English
Subtitle: English
Rated: NR (Not Rated)
Studio: ANCHOR BAY
DVD Release Date: November 16, 2010 Limited
Run Time: 92 minutes

Encoder: Freebee269
 
http://www.amazon.com/Coopers-Christmas-Jason-Jones/dp/B003YZGWF0/ref=sr_1_1?s=dvd&ie=UTF8&qid=1289965742&sr=1-1
